# This file uses centimeters as units for non-parametric coordinates.

mtllib Sanitary_Showers_Ideal-Standard_STRADA-C-E-120-RH-MATT-WHITE-IC.mtl


g default

# VertexData Begin
# Vertices (Number of Vertices = 323)
v -1190 0 0
v -1190 0 9.5
v -1190 0 19
v -1190 1.207923e-013 1955
v -1190 1.207923e-013 1977.5
v -1190 1.207923e-013 2000
v -1183.9 6.1 0
v -1183.9 6.1 19
v -1177.8 12.2 0
v -1177.8 12.2 9.5
v -1177.8 12.2 19
v -1176.26 20.48638 7
v -1176.26 20.48638 331.6667
v -1176.26 20.48638 656.3333
v -1176.26 20.48638 981
v -1176.26 20.48638 1305.667
v -1176.26 20.48638 1630.333
v -1176.26 20.48638 1955
v -1172.5 17.5 2000
v -1172.26 24.49319 1955
v -1169.5 20.48978 1955
v -1168.26 28.5 7
v -1168.26 28.5 331.6667
v -1168.26 28.5 656.3333
v -1168.26 28.5 981
v -1168.26 28.5 1305.667
v -1168.26 28.5 1630.333
v -1168.26 28.5 1955
v -1166.26 20.48638 7
v -1165.5 24.49489 1955
v -1161.5 28.5 1955
v -1156.26 20.48638 7
v -1156.26 20.48638 8.4
v -1156.26 20.48638 21.4
v -1156.26 20.48638 343.6667
v -1156.26 20.48638 665.9333
v -1156.26 20.48638 988.2
v -1156.26 20.48638 1310.467
v -1156.26 20.48638 1632.733
v -1156.26 20.48638 1955
v -1156.26 24.49319 7
v -1156.26 24.49319 8.4
v -1156.26 27.5 21.4
v -1156.26 28.5 7
v -1156.26 28.5 8.4
v -1156.26 28.5 19.4
v -1156.26 28.5 20.65
v -1156.26 28.5 343.0417
v -1156.26 28.5 665.4333
v -1156.26 28.5 987.825
v -1156.26 28.5 1310.217
v -1156.26 28.5 1632.608
v -1156.26 28.5 1955
v -1156.26 31.7 17
v -1156.26 32 18.025
v -1156.26 34.9 14.6
v -1156.26 35.5 15.4
v -1155.76 22 21.9
v -1155.76 22 988.2
v -1155.76 22 1954.5
v -1155.76 27 21.9
v -1155.76 27 988.2
v -1155.76 27 1954.5
v -1155 35 1955
v -1155 35 1977.5
v -1155 35 2000
v -1126 -2.5 910
v -1126 -2.5 1000
v -1126 -2.5 1090
v -1126 9.5 910
v -1126 9.5 1090
v -1126 21.5 910
v -1126 21.5 1000
v -1126 21.5 1090
v -1126 27.5 910
v -1126 27.5 1000
v -1126 27.5 1090
v -1126 35.5 910
v -1126 35.5 1000
v -1126 35.5 1090
v -1118.5 27.5 910
v -1118.5 35.5 910
v -1114 35.5 1020
v -1114 35.5 1055
v -1114 35.5 1090
v -1114 43 1020
v -1114 50.5 1020
v -1114 50.5 1055
v -1114 50.5 1090
v -1111 -2.5 910
v -1111 -2.5 1000
v -1111 -2.5 1090
v -1111 9.5 910
v -1111 9.5 1090
v -1111 21.5 910
v -1111 21.5 1000
v -1111 21.5 1090
v -1111 27.5 910
v -1111 27.5 1000
v -1111 27.5 1090
v -1111 35.5 910
v -1111 35.5 1020
v -1111 39 1090
v -1111 43 1020
v -1111 50.5 1020
v -1111 50.5 1055
v -1111 50.5 1090
v -997.2 12.2 0
v -991.6667 0 0
v -988.6667 1.207923e-013 1955
v -980.5333 12.2 19
v -971.3333 35 1955
v -896.13 34.9 14.6
v -892.5 1.207923e-013 2000
v -888 0 19
v -870.13 20.48638 21.4
v -858.13 20.47275 8.4
v -858.13 22 21.9
v -858.13 22 1954.5
v -858.13 27 21.9
v -858.13 27 1954.5
v -858.13 27.5 21.4
v -858.13 28.5 8.4
v -858.13 28.5 19.4
v -858.13 35.5 15.4
v -816.6 12.2 0
v -793.3333 0 0
v -787.6667 35 1955
v -787.3333 1.207923e-013 1955
v -783.2667 12.2 19
v -636 12.2 0
v -636 12.2 8
v -636 25.95 0
v -636 31.7 8
v -636 31.7 17
v -636 34.9 14.6
v -636 39.7 0
v -636 39.7 11
v -621 12.2 8
v -621 31.7 8
v -621 31.7 17
v -621 34.9 14.6
v -621 39.7 0
v -621 39.7 11
v -606 12.2 0
v -606 12.2 8
v -606 25.95 0
v -606 31.7 8
v -606 31.7 17
v -606 34.9 14.6
v -606 39.7 0
v -606 39.7 11
v -604 35 1955
v -604 35 2000
v -595 0 0
v -595 1.207923e-013 2000
v -586 0 19
v -586 0 27
v -586 1.207923e-013 1947
v -586 1.207923e-013 1955
v -586 6.1 19
v -586 6.1 27
v -586 6.1 1947
v -586 6.1 1955
v -586 12.2 19
v -586 12.2 27
v -586 12.2 1947
v -586 12.2 1951
v -586 12.2 1955
v -584 2 27
v -584 2 987
v -584 2 1947
v -584 12.2 19
v -584 12.2 27
v -584 12.2 1947
v -584 12.2 1951
v -584 12.2 1955
v -584 20.48638 19
v -584 20.48638 21.4
v -584 21.5 21.4
v -584 21.5 988.2
v -584 21.5 1955
v -576 0 27
v -576 1.207923e-013 1947
v -576 2 27
v -576 2 987
v -576 2 1947
v -576 3 19
v -576 3 23
v -576 3 27
v -576 3 1947
v -576 3 1951
v -576 3 1955
v -576 9 19
v -576 9 27
v -576 9 991
v -576 9 1955
v -575.5 3.5 19.5
v -575.5 3.5 987
v -575.5 3.5 1954.5
v -575.5 8.5 19.5
v -575.5 8.5 987
v -575.5 8.5 1954.5
v -571 3 19
v -571 3 27
v -571 3 1947
v -571 3 1955
v -568.5 12.2 19
v -568.5 20.47275 19
v -566 0 19
v -566 0 23
v -566 0 27
v -566 1.207923e-013 1947
v -566 1.207923e-013 1951
v -566 1.207923e-013 1955
v -566 3 19
v -566 3 23
v -566 3 27
v -566 3 1947
v -566 3 1951
v -566 3 1955
v -560.5 22 21.9
v -560.5 22 988.2
v -560.5 22 1954.5
v -560.5 27 21.9
v -560.5 27 988.2
v -560.5 27 1954.5
v -560 20.45913 7
v -560 20.45913 8.4
v -560 21.5 21.4
v -560 21.5 988.2
v -560 21.5 1955
v -560 24.47956 7
v -560 24.47956 8.4
v -560 27.5 21.4
v -560 28.5 7
v -560 28.5 8.4
v -560 28.5 19.4
v -560 28.5 20.65
v -560 28.5 343.0417
v -560 28.5 665.4333
v -560 28.5 987.825
v -560 28.5 1310.217
v -560 28.5 1632.608
v -560 28.5 1955
v -560 31.7 17
v -560 32 18.025
v -560 34.9 14.6
v -560 35.5 15.4
v -553 12.2 7
v -553 12.2 13
v -553 12.2 19
v -553 20.45913 7
v -553 20.45913 13
v -553 20.45913 19
v -552 9 19
v -552 9 987
v -552 9 1955
v -552 12.2 7
v -552 12.2 19
v -552 20.35 7
v -552 28.5 7
v -552 28.5 331.6667
v -552 28.5 656.3333
v -552 28.5 981
v -552 28.5 1305.667
v -552 28.5 1630.333
v -552 28.5 1955
v -421.6667 12.2 0
v -420.3333 35 1955
v -396.6667 0 0
v -395 1.207923e-013 1955
v -385.6667 12.2 19
v -314.5 3.5 19.5
v -314.5 3.5 1954.5
v -314.5 8.5 19.5
v -314.5 8.5 1954.5
v -309.5 0 19
v -297.5 1.207923e-013 2000
v -237.3333 12.2 0
v -236.6667 35 1955
v -224 1.207923e-013 1955
v -219.3333 12.2 19
v -198.3333 0 0
v -53.5 3.5 19.5
v -53.5 3.5 987
v -53.5 3.5 1954.5
v -53.5 8.5 19.5
v -53.5 8.5 987
v -53.5 8.5 1954.5
v -53 0 19
v -53 2.013204e-014 341.6667
v -53 4.026409e-014 664.3333
v -53 6.039613e-014 987
v -53 8.052817e-014 1309.667
v -53 1.006602e-013 1632.333
v -53 1.207923e-013 1955
v -53 12.2 0
v -53 12.2 19
v -53 35 1955
v -53 35 2000
v -53 37 0
v -53 37 1000
v -53 37 2000
v -33 37 0
v -33 37 1000
v -33 37 2000
v -33 41 0
v -33 41 1000
v -33 41 2000
v -10 54 0
v -10 54 1000
v -10 54 2000
v 0 0 0
v 0 2.013204e-014 333.3333
v 0 4.026409e-014 666.6667
v 0 6.039613e-014 1000
v 0 8.052817e-014 1333.333
v 0 1.006602e-013 1666.667
v 0 1.207923e-013 2000
v 0 54 0
v 0 54 1000
v 0 54 2000

# Vertex normals (Number of vertex normals = 11)
vn -1 0 0
vn -0.7071068 0.7071068 0
vn -0.4920573 0.8705629 0
vn 0 -1 0
vn 0 -0.6 -0.8
vn 0 0 -1
vn 0 0 1
vn 0 0.6 0.8
vn 0 0.8 -0.6
vn 0 1 0
vn 1 0 0

# VertexData End
# Elements Begin

# Faces (Number of Faces = 638)

usemtl 913071b6_9f4b_4429_b7cf_53aa2953dbb8
f 68//1 69//1 71//1 
f 68//1 70//1 67//1 
f 73//1 68//1 71//1 
f 68//1 73//1 70//1 
f 73//1 72//1 70//1 
f 74//1 73//1 71//1 
f 69//7 92//7 94//7 
f 97//7 74//7 71//7 
f 96//11 97//11 94//11 
f 96//11 93//11 95//11 
f 91//11 96//11 94//11 
f 96//11 91//11 93//11 
f 91//11 90//11 93//11 
f 92//11 91//11 94//11 
f 67//4 90//4 91//4 
f 92//4 69//4 68//4 
f 72//6 95//6 93//6 
f 90//6 67//6 70//6 
f 74//10 97//10 96//10 
f 95//10 72//10 73//10 
f 69//7 94//7 71//7 
f 97//7 71//7 94//7 
f 67//4 91//4 68//4 
f 92//4 68//4 91//4 
f 72//6 93//6 70//6 
f 90//6 70//6 93//6 
f 74//10 96//10 73//10 
f 95//10 73//10 96//10 

usemtl d8a98d60_c438_4210_a1cb_467a07db0ea7
f 226//10 225//10 120//10 
f 226//10 121//10 227//10 
f 62//10 226//10 120//10 
f 226//10 62//10 121//10 
f 62//10 63//10 121//10 
f 61//10 62//10 120//10 
f 63//7 60//7 119//7 
f 224//7 227//7 121//7 
f 59//4 58//4 118//4 
f 59//4 119//4 60//4 
f 223//4 59//4 118//4 
f 59//4 223//4 119//4 
f 223//4 224//4 119//4 
f 222//4 223//4 118//4 
f 61//1 58//1 59//1 
f 60//1 63//1 62//1 
f 225//6 222//6 118//6 
f 58//6 61//6 120//6 
f 227//11 224//11 223//11 
f 222//11 225//11 226//11 
f 63//7 119//7 121//7 
f 224//7 121//7 119//7 
f 61//1 59//1 62//1 
f 60//1 62//1 59//1 
f 225//6 118//6 120//6 
f 58//6 120//6 118//6 
f 227//11 223//11 226//11 
f 222//11 226//11 223//11 

usemtl 913071b6_9f4b_4429_b7cf_53aa2953dbb8
f 213//6 206//6 219//6 
f 167//6 175//6 163//6 
f 191//6 206//6 187//6 
f 184//6 206//6 213//6 
f 187//6 206//6 184//6 
f 159//6 172//6 184//6 
f 187//6 184//6 172//6 
f 163//6 172//6 159//6 
f 175//6 172//6 163//6 
f 192//11 197//11 193//11 
f 191//11 196//11 197//11 
f 195//11 196//11 190//11 
f 189//11 194//11 195//11 
f 197//11 192//11 191//11 
f 186//11 191//11 187//11 
f 196//11 186//11 190//11 
f 195//11 190//11 189//11 
f 185//11 190//11 186//11 
f 194//11 189//11 188//11 
f 191//11 186//11 196//11 
f 258//6 268//6 300//6 
f 268//6 270//6 281//6 
f 153//6 270//6 268//6 
f 245//6 232//6 182//6 
f 169//6 40//6 182//6 
f 281//6 300//6 268//6 
f 128//6 245//6 182//6 
f 245//6 153//6 268//6 
f 128//6 153//6 245//6 
f 112//6 53//6 64//6 
f 53//6 112//6 128//6 
f 182//6 53//6 128//6 
f 21//6 40//6 4//6 
f 64//6 53//6 31//6 
f 182//6 40//6 53//6 
f 221//6 197//6 258//6 
f 221//6 258//6 272//6 
f 207//6 193//6 197//6 
f 207//6 197//6 221//6 
f 258//6 297//6 282//6 
f 221//6 272//6 215//6 
f 258//6 282//6 272//6 
f 129//6 169//6 164//6 
f 129//6 110//6 169//6 
f 182//6 177//6 169//6 
f 160//6 129//6 164//6 
f 4//6 40//6 110//6 
f 169//6 110//6 40//6 
f 300//1 296//1 297//1 
f 300//1 295//1 296//1 
f 299//1 293//1 294//1 
f 299//1 291//1 292//1 
f 292//1 293//1 299//1 
f 294//1 295//1 303//1 
f 300//1 301//1 304//1 
f 303//1 300//1 304//1 
f 300//1 303//1 295//1 
f 302//1 298//1 299//1 
f 299//1 303//1 302//1 
f 299//1 294//1 303//1 
f 256//7 216//7 278//7 
f 216//7 210//7 278//7 
f 194//7 188//7 204//7 
f 216//7 194//7 204//7 
f 278//7 291//7 283//7 
f 283//7 273//7 278//7 
f 278//7 273//7 256//7 
f 216//7 256//7 194//7 
f 273//7 260//7 256//7 
f 217//11 218//11 212//11 
f 216//11 217//11 211//11 
f 205//10 204//10 189//10 
f 205//10 189//10 190//10 
f 217//10 205//10 218//10 
f 204//10 217//10 216//10 
f 217//10 204//10 205//10 
f 205//7 185//7 183//7 
f 158//7 183//7 170//7 
f 185//7 170//7 183//7 
f 162//7 158//7 170//7 
f 205//7 183//7 212//7 
f 212//7 218//7 205//7 
f 185//7 205//7 190//7 
f 166//7 162//7 174//7 
f 174//7 162//7 170//7 
f 157//1 158//1 162//1 
f 161//1 162//1 166//1 
f 161//7 8//7 115//7 
f 115//7 8//7 3//7 
f 161//7 115//7 157//7 
f 130//7 161//7 165//7 
f 8//7 111//7 11//7 
f 130//7 111//7 161//7 
f 161//7 111//7 8//7 
f 2//2 3//2 8//2 
f 2//2 7//2 1//2 
f 10//2 2//2 8//2 
f 2//2 10//2 7//2 
f 10//2 9//2 7//2 
f 11//2 10//2 8//2 
f 311//6 321//6 308//6 
f 305//6 308//6 321//6 
f 302//6 305//6 298//6 
f 305//6 314//6 298//6 
f 314//6 305//6 321//6 
f 147//6 143//6 151//6 
f 133//6 137//6 143//6 
f 143//6 147//6 133//6 
f 108//6 7//6 9//6 
f 147//6 145//6 131//6 
f 155//6 269//6 271//6 
f 280//6 271//6 269//6 
f 145//6 269//6 155//6 
f 280//6 284//6 271//6 
f 298//6 284//6 280//6 
f 284//6 298//6 314//6 
f 131//6 145//6 155//6 
f 127//6 126//6 131//6 
f 109//6 7//6 108//6 
f 109//6 1//6 7//6 
f 127//6 109//6 126//6 
f 131//6 155//6 127//6 
f 126//6 109//6 108//6 
f 319//11 323//11 320//11 
f 321//11 322//11 315//11 
f 322//11 323//11 319//11 
f 322//11 318//11 317//11 
f 321//11 315//11 314//11 
f 322//11 317//11 316//11 
f 313//10 323//10 322//10 
f 321//10 311//10 312//10 
f 309//3 310//3 313//3 
f 308//3 309//3 312//3 
f 306//1 307//1 310//1 
f 305//1 306//1 309//1 
f 304//10 307//10 306//10 
f 305//10 302//10 303//10 
f 156//7 154//7 114//7 
f 156//7 279//7 154//7 
f 19//7 6//7 114//7 
f 114//7 154//7 19//7 
f 66//7 19//7 154//7 
f 301//7 279//7 320//7 
f 313//7 310//7 323//7 
f 307//7 323//7 310//7 
f 279//7 301//7 154//7 
f 301//7 307//7 304//7 
f 307//7 301//7 320//7 
f 320//7 323//7 307//7 
f 154//10 301//10 281//10 
f 66//10 154//10 65//10 
f 154//10 153//10 65//10 
f 300//10 281//10 301//10 
f 154//10 270//10 153//10 
f 65//10 128//10 112//10 
f 65//10 112//10 64//10 
f 65//10 153//10 128//10 
f 5//2 6//2 19//2 
f 4//2 5//2 21//2 
f 5//2 65//2 21//2 
f 65//2 5//2 19//2 
f 21//2 65//2 30//2 
f 65//2 31//2 30//2 
f 65//2 64//2 31//2 
f 66//2 65//2 19//2 
f 182//10 232//10 231//10 
f 230//10 180//10 181//10 
f 180//7 116//7 179//7 
f 116//7 43//7 34//7 
f 122//7 180//7 235//7 
f 230//7 235//7 180//7 
f 122//7 43//7 116//7 
f 180//7 122//7 116//7 
f 228//4 253//4 229//4 
f 254//4 229//4 253//4 
f 229//4 209//4 178//4 
f 229//4 255//4 209//4 
f 117//4 229//4 178//4 
f 255//4 229//4 254//4 
f 33//4 29//4 32//4 
f 29//4 34//4 12//4 
f 116//4 117//4 179//4 
f 178//4 179//4 117//4 
f 34//4 33//4 116//4 
f 116//4 33//4 117//4 
f 33//4 34//4 29//4 
f 34//4 35//4 13//4 
f 35//4 36//4 14//4 
f 37//4 38//4 16//4 
f 21//4 39//4 40//4 
f 38//4 39//4 17//4 
f 36//4 37//4 15//4 
f 21//4 18//4 17//4 
f 17//4 39//4 21//4 
f 209//6 173//6 178//6 
f 255//6 208//6 209//6 
f 255//6 252//6 208//6 
f 209//6 208//6 173//6 
f 255//1 251//1 252//1 
f 254//1 250//1 251//1 
f 253//1 250//1 254//1 
f 255//1 254//1 251//1 
f 233//6 262//6 253//6 
f 261//6 253//6 262//6 
f 262//6 233//6 236//6 
f 233//6 253//6 228//6 
f 250//6 261//6 259//6 
f 261//6 250//6 253//6 
f 194//4 256//4 195//4 
f 256//4 257//4 195//4 
f 257//4 258//4 196//4 
f 258//11 267//11 268//11 
f 257//11 266//11 267//11 
f 261//11 264//11 265//11 
f 261//11 263//11 264//11 
f 265//11 266//11 257//11 
f 257//11 261//11 265//11 
f 260//11 261//11 257//11 
f 256//11 260//11 257//11 
f 262//11 263//11 261//11 
f 260//11 259//11 261//11 
f 257//11 267//11 258//11 
f 150//11 148//11 152//11 
f 152//11 148//11 151//11 
f 148//11 150//11 149//11 
f 148//11 146//11 147//11 
f 151//11 148//11 147//11 
f 139//7 146//7 148//7 
f 132//7 139//7 140//7 
f 142//8 150//8 152//8 
f 136//8 142//8 144//8 
f 144//10 152//10 151//10 
f 138//10 144//10 143//10 
f 148//4 149//4 141//4 
f 140//4 141//4 135//4 
f 246//11 248//11 249//11 
f 247//11 246//11 249//11 
f 246//11 247//11 238//11 
f 239//11 238//11 247//11 
f 117//6 42//6 123//6 
f 123//6 42//6 45//6 
f 234//6 123//6 237//6 
f 117//6 234//6 229//6 
f 117//6 33//6 42//6 
f 234//6 117//6 123//6 
f 44//11 45//11 42//11 
f 41//11 44//11 42//11 
f 32//11 41//11 33//11 
f 42//11 33//11 41//11 
f 22//6 44//6 41//6 
f 29//6 22//6 41//6 
f 41//6 32//6 29//6 
f 22//6 29//6 12//6 
f 20//2 17//2 18//2 
f 20//2 15//2 16//2 
f 22//2 12//2 13//2 
f 23//2 13//2 14//2 
f 24//2 14//2 15//2 
f 20//2 16//2 17//2 
f 26//2 20//2 27//2 
f 28//2 27//2 20//2 
f 25//2 20//2 26//2 
f 15//2 20//2 25//2 
f 20//7 18//7 21//7 
f 30//7 20//7 21//7 
f 28//7 30//7 31//7 
f 20//7 30//7 28//7 
f 234//1 228//1 229//1 
f 233//1 228//1 234//1 
f 237//1 236//1 233//1 
f 244//10 245//10 268//10 
f 244//10 268//10 267//10 
f 243//10 267//10 266//10 
f 243//10 266//10 242//10 
f 265//10 242//10 266//10 
f 244//10 267//10 243//10 
f 28//10 31//10 52//10 
f 53//10 52//10 31//10 
f 52//10 27//10 28//10 
f 52//10 51//10 27//10 
f 51//10 50//10 26//10 
f 50//10 49//10 25//10 
f 241//10 242//10 265//10 
f 240//10 264//10 263//10 
f 264//10 240//10 241//10 
f 240//10 263//10 239//10 
f 265//10 264//10 241//10 
f 236//10 237//10 262//10 
f 238//10 262//10 237//10 
f 262//10 238//10 239//10 
f 237//10 123//10 124//10 
f 263//10 262//10 239//10 
f 49//10 48//10 24//10 
f 24//10 48//10 23//10 
f 48//10 47//10 23//10 
f 45//10 46//10 124//10 
f 22//10 45//10 44//10 
f 46//10 45//10 22//10 
f 47//10 46//10 22//10 
f 55//1 54//1 46//1 
f 47//1 55//1 46//1 
f 54//1 57//1 56//1 
f 55//1 57//1 54//1 
f 244//1 231//1 232//1 
f 235//1 230//1 231//1 
f 231//1 241//1 235//1 
f 245//1 244//1 232//1 
f 231//1 244//1 243//1 
f 231//1 243//1 242//1 
f 235//1 241//1 240//1 
f 235//1 240//1 239//1 
f 231//1 242//1 241//1 
f 52//11 53//11 39//11 
f 51//11 52//11 38//11 
f 49//11 50//11 36//11 
f 43//11 47//11 48//11 
f 48//11 49//11 43//11 
f 50//11 51//11 37//11 
f 35//11 43//11 36//11 
f 36//11 43//11 49//11 
f 43//11 35//11 34//11 
f 122//8 235//8 239//8 
f 43//8 122//8 47//8 
f 122//8 55//8 47//8 
f 247//8 122//8 239//8 
f 125//8 247//8 249//8 
f 57//8 55//8 125//8 
f 125//8 55//8 122//8 
f 247//8 125//8 122//8 
f 136//9 125//9 249//9 
f 248//9 150//9 249//9 
f 125//9 113//9 57//9 
f 150//9 142//9 249//9 
f 57//9 113//9 56//9 
f 136//9 113//9 125//9 
f 249//9 142//9 136//9 
f 149//5 150//5 248//5 
f 136//5 135//5 113//5 
f 113//5 54//5 56//5 
f 141//5 149//5 238//5 
f 246//5 238//5 149//5 
f 135//5 141//5 238//5 
f 113//5 135//5 54//5 
f 124//5 54//5 135//5 
f 54//5 124//5 46//5 
f 124//5 135//5 238//5 
f 132//1 134//1 133//1 
f 134//1 136//1 138//1 
f 133//1 134//1 137//1 
f 138//1 137//1 134//1 
f 135//1 136//1 134//1 
f 273//10 283//10 259//10 
f 173//10 208//10 251//10 
f 252//10 251//10 208//10 
f 260//10 273//10 259//10 
f 283//10 299//10 298//10 
f 166//10 174//10 173//10 
f 251//10 130//10 165//10 
f 111//10 10//10 11//10 
f 132//10 111//10 130//10 
f 165//10 173//10 251//10 
f 251//10 132//10 130//10 
f 146//10 251//10 250//10 
f 145//10 250//10 259//10 
f 145//10 146//10 250//10 
f 283//10 280//10 259//10 
f 259//10 269//10 145//10 
f 259//10 280//10 269//10 
f 10//10 111//10 132//10 
f 132//10 251//10 139//10 
f 108//10 10//10 132//10 
f 132//10 131//10 126//10 
f 10//10 108//10 9//10 
f 132//10 126//10 108//10 
f 146//10 139//10 251//10 
f 170//4 185//4 186//4 
f 187//4 172//4 171//4 
f 182//1 176//1 177//1 
f 182//1 175//1 176//1 
f 175//1 171//1 172//1 
f 171//1 174//1 170//1 
f 174//1 171//1 175//1 
f 174//1 175//1 181//1 
f 182//1 181//1 175//1 
f 179//1 174//1 181//1 
f 178//1 173//1 179//1 
f 174//1 179//1 173//1 
f 180//1 179//1 181//1 
f 169//10 177//10 176//10 
f 175//10 167//10 168//10 
f 159//1 160//1 164//1 
f 163//1 159//1 164//1 
f 164//1 168//1 163//1 
f 168//1 167//1 163//1 
f 169//1 168//1 164//1 
f 278//4 284//4 291//4 
f 278//4 210//4 271//4 
f 284//4 278//4 271//4 
f 155//4 271//4 210//4 
f 291//4 284//4 314//4 
f 292//4 291//4 315//4 
f 315//4 316//4 292//4 
f 294//4 293//4 316//4 
f 127//4 115//4 109//4 
f 115//4 3//4 109//4 
f 109//4 2//4 1//4 
f 109//4 3//4 2//4 
f 127//4 155//4 157//4 
f 183//4 211//4 212//4 
f 210//4 183//4 157//4 
f 183//4 158//4 157//4 
f 127//4 157//4 115//4 
f 210//4 157//4 155//4 
f 210//4 211//4 183//4 
f 317//4 318//4 295//4 
f 296//4 295//4 318//4 
f 297//4 296//4 319//4 
f 282//4 297//4 320//4 
f 282//4 279//4 272//4 
f 279//4 156//4 272//4 
f 215//4 184//4 214//4 
f 213//4 214//4 184//4 
f 160//4 184//4 215//4 
f 184//4 160//4 159//4 
f 156//4 129//4 160//4 
f 160//4 215//4 156//4 
f 114//4 129//4 156//4 
f 110//4 129//4 114//4 
f 5//4 110//4 6//4 
f 114//4 6//4 110//4 
f 4//4 110//4 5//4 
f 156//4 215//4 272//4 
f 220//11 221//11 215//11 
f 219//11 220//11 214//11 
f 207//10 221//10 220//10 
f 207//10 192//10 193//10 
f 206//10 207//10 220//10 
f 207//10 206//10 192//10 
f 206//10 191//10 192//10 
f 219//10 206//10 220//10 
f 258//6 300//6 297//6 
f 291//7 299//7 283//7 
f 217//11 212//11 211//11 
f 216//11 211//11 210//11 
f 204//10 188//10 189//10 
f 157//1 162//1 161//1 
f 161//1 166//1 165//1 
f 147//6 131//6 133//6 
f 322//11 316//11 315//11 
f 322//11 319//11 318//11 
f 313//10 322//10 312//10 
f 321//10 312//10 322//10 
f 309//3 313//3 312//3 
f 308//3 312//3 311//3 
f 306//1 310//1 309//1 
f 305//1 309//1 308//1 
f 304//10 306//10 303//10 
f 305//10 303//10 306//10 
f 154//10 281//10 270//10 
f 182//10 231//10 181//10 
f 230//10 181//10 231//10 
f 34//4 13//4 12//4 
f 35//4 14//4 13//4 
f 37//4 16//4 15//4 
f 38//4 17//4 16//4 
f 36//4 15//4 14//4 
f 257//4 196//4 195//4 
f 258//4 197//4 196//4 
f 146//11 145//11 147//11 
f 139//7 148//7 140//7 
f 132//7 140//7 134//7 
f 142//8 152//8 144//8 
f 136//8 144//8 138//8 
f 144//10 151//10 143//10 
f 138//10 143//10 137//10 
f 148//4 141//4 140//4 
f 140//4 135//4 134//4 
f 22//2 13//2 23//2 
f 23//2 14//2 24//2 
f 24//2 15//2 25//2 
f 237//1 233//1 234//1 
f 51//10 26//10 27//10 
f 50//10 25//10 26//10 
f 49//10 24//10 25//10 
f 237//10 124//10 238//10 
f 47//10 22//10 23//10 
f 45//10 124//10 123//10 
f 53//11 40//11 39//11 
f 52//11 39//11 38//11 
f 50//11 37//11 36//11 
f 51//11 38//11 37//11 
f 149//5 248//5 246//5 
f 132//1 133//1 131//1 
f 283//10 298//10 280//10 
f 166//10 173//10 165//10 
f 170//4 186//4 171//4 
f 187//4 171//4 186//4 
f 169//10 176//10 168//10 
f 175//10 168//10 176//10 
f 291//4 314//4 315//4 
f 316//4 293//4 292//4 
f 294//4 316//4 317//4 
f 317//4 295//4 294//4 
f 296//4 318//4 319//4 
f 297//4 319//4 320//4 
f 282//4 320//4 279//4 
f 220//11 215//11 214//11 
f 219//11 214//11 213//11 

usemtl d8a98d60_c438_4210_a1cb_467a07db0ea7
f 199//4 198//4 274//4 
f 199//4 275//4 200//4 
f 275//4 199//4 274//4 
f 275//4 274//4 286//4 
f 285//4 286//4 274//4 
f 287//7 290//7 277//7 
f 203//7 200//7 275//7 
f 289//10 288//10 276//10 
f 289//10 277//10 290//10 
f 277//10 289//10 276//10 
f 277//10 276//10 202//10 
f 202//10 203//10 277//10 
f 285//11 288//11 289//11 
f 290//11 287//11 286//11 
f 198//6 201//6 276//6 
f 288//6 285//6 274//6 
f 200//1 203//1 202//1 
f 201//1 198//1 199//1 
f 275//4 286//4 287//4 
f 287//7 277//7 275//7 
f 203//7 275//7 277//7 
f 276//10 201//10 202//10 
f 285//11 289//11 286//11 
f 290//11 286//11 289//11 
f 198//6 276//6 274//6 
f 288//6 274//6 276//6 
f 200//1 202//1 199//1 
f 201//1 199//1 202//1 

usemtl 913071b6_9f4b_4429_b7cf_53aa2953dbb8
f 84//10 79//10 80//10 
f 85//10 84//10 80//10 
f 82//10 83//10 101//10 
f 102//10 101//10 83//10 
f 78//10 79//10 82//10 
f 83//10 82//10 79//10 
f 84//10 83//10 79//10 
f 84//1 85//1 89//1 
f 86//1 83//1 84//1 
f 84//1 88//1 86//1 
f 89//10 107//10 106//10 
f 105//10 87//10 88//10 
f 77//7 100//7 85//7 
f 103//7 85//7 100//7 
f 80//7 77//7 85//7 
f 89//7 103//7 107//7 
f 103//7 89//7 85//7 
f 99//4 81//4 98//4 
f 76//4 75//4 81//4 
f 100//4 77//4 76//4 
f 81//4 99//4 76//4 
f 76//1 79//1 78//1 
f 77//1 80//1 79//1 
f 82//6 101//6 98//6 
f 78//6 82//6 81//6 
f 106//11 107//11 103//11 
f 105//11 106//11 104//11 
f 103//11 104//11 106//11 
f 104//11 103//11 102//11 
f 99//11 102//11 100//11 
f 103//11 100//11 102//11 
f 98//11 101//11 99//11 
f 102//11 99//11 101//11 
f 86//6 87//6 105//6 
f 104//6 86//6 105//6 
f 86//6 104//6 83//6 
f 102//6 83//6 104//6 
f 84//1 89//1 88//1 
f 88//1 87//1 86//1 
f 89//10 106//10 88//10 
f 105//10 88//10 106//10 
f 100//4 76//4 99//4 
f 76//1 78//1 75//1 
f 77//1 79//1 76//1 
f 82//6 98//6 81//6 
f 78//6 81//6 75//6 

# Elements End

# endsolid Sanitary_Showers_Ideal-Standard_STRADA-C-E-120-RH-MATT-WHITE-IC
